<?xml version="1.0" standalone="no"?>
<!DOCTYPE svg PUBLIC "-//W3C//DTD SVG 20010904//EN"
 "http://www.w3.org/TR/2001/REC-SVG-20010904/DTD/svg10.dtd">
<svg version="1.0" xmlns="http://www.w3.org/2000/svg"
 width="82.000000pt" height="82.000000pt" viewBox="0 0 82.000000 82.000000"
 preserveAspectRatio="xMidYMid meet">
<metadata>
Created by potrace 1.14, written by Peter Selinger 2001-2017
</metadata>
<g transform="translate(0.000000,82.000000) scale(0.100000,-0.100000)"
fill="#000000" stroke="none">
<path d="M160 790 c0 -25 -13 -43 -70 -98 l-70 -67 0 -188 0 -187 74 0 74 0
52 -97 c87 -164 75 -154 188 -151 l97 3 60 122 60 121 77 1 77 1 6 55 c4 30 6
116 3 190 -4 151 -4 151 -100 221 -36 27 -47 42 -50 67 l-3 32 -237 3 -238 2
0 -30z"/>
</g>
</svg>
